# xmcd
#
# Track frame offsets:
#	150
#	20078
#	30477
#	49679
#	64586
#	83766
#
# Disc length: 1295 seconds
#
# Revision: 3
# Processed by: cddbd v1.5.1PL0 Copyright (c) Steve Scherf et al.
# Submitted via: dBpowerAMP V4.0
#
DISCID=41050d06
DTITLE=Nivea Lazzarus and Andre Violli - Violão e Voz
DYEAR=2004
DGENRE=Blues
TTITLE0=Stand By Me
TTITLE1=Mercedes Benz
TTITLE2=So Much To Say
TTITLE3=Hole Hearted
TTITLE4=No Excuses
TTITLE5=Nós
EXTD=Contatos: +55 (21) 9138-6352 - 9172-5536\nE-mail: violaoevoz@msn.com\nWeb: http://violaoevoz.blig.com.br
EXTT0=
EXTT1=
EXTT2=
EXTT3=
EXTT4=
EXTT5=
PLAYORDER=
